<svg xmlns="http://www.w3.org/2000/svg" viewBox="0 0 450 160" width="100%" height="100%">
  <g transform="translate(30, 20)">
    <!-- Bélo Icon -->
    <path d="M50 10 C32 10 20 25 20 45 C20 68 45 95 50 100 C55 95 80 68 80 45 C80 25 68 10 50 10 Z M50 64 C42 64 36 56 36 46 C36 36 42 28 50 28 C58 28 64 36 64 46 C64 56 58 64 50 64 Z" fill="#FF5A5F"/>
    
    <!-- Wordmark -->
    <text x="105" y="78" font-family="'Helvetica Neue', Arial, sans-serif" font-weight="900" font-size="58" fill="#FF5A5F" letter-spacing="-2">airbnb</text>
    <text x="108" y="105" font-family="Arial, sans-serif" font-weight="700" font-size="14" fill="#000000" letter-spacing="3">FULL STACK CLONE</text>
  </g>
</svg>
